<?xml version="1.0" encoding="UTF-8"?>
<svg width="10px" height="6px" viewBox="0 0 10 6" version="1.1" xmlns="http://www.w3.org/2000/svg" xmlns:xlink="http://www.w3.org/1999/xlink">
    <!-- Generator: Sketch 46 (44423) - http://www.bohemiancoding.com/sketch -->
    <title>angle-up - FontAwesome</title>
    <desc>Created with Sketch.</desc>
    <defs></defs>
    <g id="Market-pages" stroke="none" stroke-width="1" fill="none" fill-rule="evenodd">
        <g id="product-page-summary-reorder" transform="translate(-468.000000, -467.000000)" fill="#20ABFA">
            <g id="content" transform="translate(70.000000, 100.000000)">
                <g id="Table" transform="translate(390.000000, 263.000000)">
                    <g id="list-header">
                        <g id="Group" transform="translate(0.000000, 95.000000)">
                            <path d="M17.759765,13.8571429 C17.759765,13.9345242 17.7303276,14.0029759 17.6714519,14.0625 L17.2298864,14.5089286 C17.1710107,14.5684527 17.1033047,14.5982143 17.0267663,14.5982143 C16.9502279,14.5982143 16.8825218,14.5684527 16.8236461,14.5089286 L13.3529412,11 L9.88223623,14.5089286 C9.82336053,14.5684527 9.7556545,14.5982143 9.67911609,14.5982143 C9.60257769,14.5982143 9.53487165,14.5684527 9.47599595,14.5089286 L9.03443044,14.0625 C8.97555474,14.0029759 8.94611734,13.9345242 8.94611734,13.8571429 C8.94611734,13.7797615 8.97555474,13.7113098 9.03443044,13.6517857 L13.149821,9.49107143 C13.2086967,9.43154732 13.2764028,9.40178571 13.3529412,9.40178571 C13.4294796,9.40178571 13.4971856,9.43154732 13.5560613,9.49107143 L17.6714519,13.6517857 C17.7303276,13.7113098 17.759765,13.7797615 17.759765,13.8571429 Z" id="angle-up---FontAwesome"></path>
                        </g>
                    </g>
                </g>
            </g>
        </g>
    </g>
</svg>