<?xml version="1.0" encoding="UTF-8"?>
<svg width="178px" height="118px" viewBox="0 0 178 118" version="1.1" xmlns="http://www.w3.org/2000/svg" xmlns:xlink="http://www.w3.org/1999/xlink">
    <!-- Generator: Sketch 45.2 (43514) - http://www.bohemiancoding.com/sketch -->
    <title>Page 1</title>
    <desc>Created with Sketch.</desc>
    <defs>
        <polygon id="path-1" points="0.226134764 0.148327064 0.226134764 41.5968118 38.2754903 41.5968118 38.2754903 0.148327064 0.226134764 0.148327064"></polygon>
        <polygon id="path-3" points="0.226134764 0.148327064 0.226134764 41.5968118 38.2754903 41.5968118 38.2754903 0.148327064 0.226134764 0.148327064"></polygon>
    </defs>
    <g id="Market-pages" stroke="none" stroke-width="1" fill="none" fill-rule="evenodd">
        <g id="modal_box_processing" transform="translate(-551.000000, -491.000000)">
            <g id="Page-1" transform="translate(551.000000, 491.000000)">
                <g id="Group-3" transform="translate(0.000000, 0.263048)">
                    <path d="M19.0256595,15.9871616 L1.92987757,8.22956031 L19.0256595,1.66770167 L36.1175145,8.22956031 L19.0256595,15.9871616 Z M37.6332999,7.434362 L19.2612738,0.379676759 C19.2337855,0.367896043 19.2004068,0.369859496 19.1689915,0.363969138 C19.1199052,0.354151875 19.0727824,0.338444254 19.0217326,0.338444254 C18.9706828,0.338444254 18.92356,0.354151875 18.8705467,0.363969138 C18.8430584,0.373786401 18.8155701,0.369859496 18.7861183,0.379676759 L18.7605934,0.389494022 L0.416055609,7.434362 C0.107793549,7.55216916 -0.0453557554,7.87024848 0.029255444,8.17654709 C0.00962091781,8.23348722 -0.000196345261,8.2963177 -0.000196345261,8.35522128 L-0.000196345261,31.5239621 C-0.000196345261,31.7595764 0.133318433,31.9794831 0.343407862,32.0913999 L18.715434,41.7123177 C18.7468492,41.7260619 18.7802279,41.7339157 18.8116432,41.7456964 C18.8273508,41.7515868 18.8430584,41.7574772 18.858766,41.765331 C18.9137427,41.7771117 18.9667559,41.7869289 19.0256595,41.7869289 C19.0786727,41.7869289 19.1375763,41.7771117 19.1905895,41.765331 C19.2062971,41.7574772 19.2220048,41.7515868 19.2377124,41.7456964 C19.2710911,41.7339157 19.3025063,41.7260619 19.3319581,41.7123177 L37.7020208,32.0913999 C37.9160371,31.9794831 38.0515153,31.7595764 38.0515153,31.5239621 L38.0515153,8.35522128 C38.0515153,8.2963177 38.0377712,8.23348722 38.0201001,8.17654709 C38.0907844,7.87221194 37.9376351,7.55216916 37.6332999,7.434362 L37.6332999,7.434362 Z" id="Fill-1" fill="#002C87"></path>
                    <polygon id="Path" fill="#B6C8E2" points="36.7418924 31.1391254 19.6755623 40.0728348 19.6755623 17.1043661 36.7418924 9.36050902"></polygon>
                </g>
                <path d="M89.7684509,17.9874721 L72.672669,10.2298709 L89.7684509,3.66604877 L106.858342,10.2298709 L89.7684509,17.9874721 Z M108.374128,9.43467255 L90.0040652,2.37802385 C89.9746134,2.36820659 89.9412347,2.37017004 89.9098195,2.36427968 C89.8607332,2.35446242 89.8136103,2.3387548 89.764524,2.3387548 C89.7115108,2.3387548 89.6643879,2.35446242 89.6113747,2.36427968 C89.5858498,2.37409695 89.556398,2.37017004 89.5269462,2.37802385 L89.5033848,2.38784112 L71.1568836,9.43467255 C70.850585,9.55247971 70.6974357,9.86859558 70.7700834,10.1768576 C70.7504489,10.2318343 70.7406316,10.2946648 70.7406316,10.3555318 L70.7406316,33.5242727 C70.7406316,33.759887 70.8741464,33.9778302 71.0861993,34.0917105 L89.456262,43.7106648 C89.4896406,43.7263725 89.5210559,43.7342263 89.5524711,43.746007 C89.5681788,43.7518973 89.5858498,43.7577877 89.6015574,43.7636781 C89.6545707,43.7774222 89.7075839,43.7872395 89.7684509,43.7872395 C89.8214641,43.7872395 89.8784043,43.7774222 89.9333809,43.7636781 C89.9471251,43.7577877 89.9647962,43.7518973 89.9805038,43.746007 C90.0138825,43.7342263 90.0433343,43.7263725 90.0727861,43.7106648 L108.442849,34.0917105 C108.658829,33.9778302 108.792343,33.759887 108.792343,33.5242727 L108.792343,10.3555318 C108.792343,10.2946648 108.778599,10.2318343 108.760928,10.1768576 C108.833576,9.87252248 108.678463,9.55247971 108.374128,9.43467255 L108.374128,9.43467255 Z" id="Fill-4" fill="#002C87"></path>
                <polygon id="Path" fill="#B6C8E2" points="107.484684 33.139436 90.4183537 42.0731454 90.4183537 19.1046767 107.484684 11.3608196"></polygon>
                <g id="Group-8" transform="translate(70.365274, 73.591775)">
                    <mask id="mask-2" fill="white">
                        <use xlink:href="#path-1"></use>
                    </mask>
                    <g id="Clip-7"></g>
                    <path d="M19.2515979,15.7970444 L2.15581599,8.03944312 L19.2515979,1.47758448 L36.3434529,8.03944312 L19.2515979,15.7970444 Z M37.8572749,7.24424481 L19.4872122,0.189559569 C19.4577604,0.177778853 19.4243817,0.179742306 19.3949299,0.173851948 C19.3458436,0.164034685 19.2967573,0.148327064 19.247671,0.148327064 C19.1946578,0.148327064 19.1494984,0.164034685 19.0964852,0.173851948 C19.0689968,0.183669211 19.039545,0.179742306 19.0100932,0.189559569 L18.9865318,0.199376832 L0.640030576,7.24424481 C0.333731968,7.36205197 0.180582664,7.68013129 0.255193863,7.9864299 C0.235559337,8.04337003 0.225742074,8.10620051 0.225742074,8.16510409 L0.225742074,31.3338449 C0.225742074,31.5694593 0.357293399,31.7893659 0.569346281,31.9012827 L18.9394089,41.5222006 C18.9727876,41.5359447 19.0061663,41.5437985 19.0356181,41.5555793 C19.0532892,41.5614696 19.0689968,41.56736 19.0847044,41.5752138 C19.1377177,41.5869945 19.1926943,41.5968118 19.2515979,41.5968118 C19.3046111,41.5968118 19.3615513,41.5869945 19.4165279,41.5752138 C19.4302721,41.56736 19.4479432,41.5614696 19.4636508,41.5555793 C19.4970295,41.5437985 19.5284447,41.5359447 19.5559331,41.5222006 L37.9279592,31.9012827 C38.1419755,31.7893659 38.2754903,31.5694593 38.2754903,31.3338449 L38.2754903,8.16510409 C38.2754903,8.10620051 38.2617461,8.04337003 38.2460385,7.9864299 C38.3167228,7.68209475 38.1635735,7.36205197 37.8572749,7.24424481 L37.8572749,7.24424481 Z" id="Fill-6" fill="#002C87" mask="url(#mask-2)"></path>
                    <polygon id="Path" fill="#B6C8E2" mask="url(#mask-2)" points="36.9678308 30.9490082 19.9015007 39.8827176 19.9015007 16.9142489 36.9678308 9.17039183"></polygon>
                </g>
                <path d="M89,41.8004218 L89,75.7544079" id="Stroke-9" stroke="#002C87" stroke-width="2"></path>
                <path d="M37.2826137,23 L71.2346363,23" id="Stroke-10" stroke="#002C87" stroke-width="2"></path>
                <path d="M107.965926,96 L141.919912,96" id="Stroke-11" stroke="#002C87" stroke-width="2"></path>
                <g id="Group-14" transform="translate(139.086116, 75.555227)">
                    <mask id="mask-4" fill="white">
                        <use xlink:href="#path-3"></use>
                    </mask>
                    <g id="Clip-13"></g>
                    <path d="M19.2515979,15.7970444 L2.15581599,8.03944312 L19.2515979,1.47758448 L36.3434529,8.03944312 L19.2515979,15.7970444 Z M37.8572749,7.24424481 L19.4872122,0.189559569 C19.4577604,0.177778853 19.4243817,0.179742306 19.3949299,0.173851948 C19.3458436,0.164034685 19.2967573,0.148327064 19.247671,0.148327064 C19.1946578,0.148327064 19.1494984,0.164034685 19.0964852,0.173851948 C19.0689968,0.183669211 19.039545,0.179742306 19.0100932,0.189559569 L18.9865318,0.199376832 L0.640030576,7.24424481 C0.333731968,7.36205197 0.180582664,7.68013129 0.255193863,7.9864299 C0.235559337,8.04337003 0.225742074,8.10620051 0.225742074,8.16510409 L0.225742074,31.3338449 C0.225742074,31.5694593 0.357293399,31.7893659 0.569346281,31.9012827 L18.9394089,41.5222006 C18.9727876,41.5359447 19.0061663,41.5437985 19.0356181,41.5555793 C19.0532892,41.5614696 19.0689968,41.56736 19.0847044,41.5752138 C19.1377177,41.5869945 19.1926943,41.5968118 19.2515979,41.5968118 C19.3046111,41.5968118 19.3615513,41.5869945 19.4165279,41.5752138 C19.4302721,41.56736 19.4479432,41.5614696 19.4636508,41.5555793 C19.4970295,41.5437985 19.5284447,41.5359447 19.5559331,41.5222006 L37.9279592,31.9012827 C38.1419755,31.7893659 38.2754903,31.5694593 38.2754903,31.3338449 L38.2754903,8.16510409 C38.2754903,8.10620051 38.2617461,8.04337003 38.2460385,7.9864299 C38.3167228,7.68209475 38.1635735,7.36205197 37.8572749,7.24424481 L37.8572749,7.24424481 Z" id="Fill-12" fill="#002C87" mask="url(#mask-4)"></path>
                    <polygon id="Path" fill="#B6C8E2" mask="url(#mask-4)" points="36.9678308 30.9490082 19.9015007 39.8827176 19.9015007 16.9142489 36.9678308 9.17039183"></polygon>
                </g>
            </g>
        </g>
    </g>
</svg>