<?xml version="1.0" encoding="UTF-8"?>
<svg width="107px" height="91px" viewBox="0 0 107 91" version="1.1" xmlns="http://www.w3.org/2000/svg" xmlns:xlink="http://www.w3.org/1999/xlink">
    <!-- Generator: Sketch 45.2 (43514) - http://www.bohemiancoding.com/sketch -->
    <title>icon_error</title>
    <desc>Created with Sketch.</desc>
    <defs></defs>
    <g id="Market-pages" stroke="none" stroke-width="1" fill="none" fill-rule="evenodd">
        <g id="modal-box-error" transform="translate(-586.000000, -297.000000)">
            <g id="Content_modal_box" transform="translate(370.000000, 244.000000)">
                <g id="icon_error" transform="translate(216.000000, 53.000000)">
                    <g id="line" transform="translate(19.000000, 41.000000)" stroke="#002C87" stroke-width="2" stroke-linecap="round">
                        <path d="M0,1 L37,1" id="Line-3"></path>
                        <polyline id="Line-3" points="52.7695718 1.00001177 54.2041979 1.00001177 59.9995718 1.00001177"></polyline>
                    </g>
                    <g id="line" transform="translate(7.000000, 10.000000)">
                        <path d="M11.6597452,15 L63.3028415,15" id="Line-3" stroke="#002C87" stroke-width="2" stroke-linecap="round"></path>
                        <path d="M11.6597452,8 L63.3028415,8" id="Line-3" stroke="#002C87" stroke-width="2" stroke-linecap="round"></path>
                        <path d="M11.6597452,1 L63.3028415,1" id="Line-3" stroke="#002C87" stroke-width="2" stroke-linecap="round"></path>
                        <ellipse id="Oval-107" fill="#3B4340" cx="1.89183075" cy="31.9216687" rx="1.26854288" ry="1.22057709"></ellipse>
                        <ellipse id="Oval-107" fill="#3B4340" cx="1.89158301" cy="45.2210151" rx="1.26849011" ry="1.22097758"></ellipse>
                    </g>
                    <g>
                        <ellipse id="shadow" fill-opacity="0.185009058" fill="#20ABFA" cx="50.7959396" cy="86.3530974" rx="50.7959396" ry="3.80969547"></ellipse>
                        <path d="M7.63492867,54.8032216 L7.61939095,54.8032216 L7.61939095,80.0057593 C7.61939095,82.8093587 9.89737237,85.0831989 12.7031738,85.0831989 L88.8887055,85.0831989 C91.6995036,85.0831989 93.9724883,82.8124363 93.9724883,80.0057593 L93.9724883,69.4211175 C93.9724883,68.7197719 93.4039354,68.151219 92.7025899,68.151219 C92.0012443,68.151219 91.4326914,68.7197719 91.4326914,69.4211175 L91.4326914,80.0057593 C91.4326914,81.4072606 90.2992983,82.5434019 88.8887055,82.5434019 L12.7031738,82.5434019 C11.2981692,82.5434019 10.1591879,81.4047728 10.1591879,80.0057593 L10.1591879,57.6719243 L16.9676246,64.4803609 C17.259475,64.7722114 17.6571231,64.8930752 18.0361187,64.8429668 C18.4140661,64.891757 18.8103463,64.7710393 19.1010247,64.4803609 L27.3469136,56.234472 L35.5928025,64.4803609 C35.8846529,64.7722114 36.282301,64.8930752 36.6612966,64.8429668 C37.0392439,64.891757 37.4355242,64.7710393 37.7262025,64.4803609 L45.9720914,56.234472 L54.2179803,64.4803609 C54.5098308,64.7722114 54.9074789,64.8930752 55.2864745,64.8429668 C55.6644218,64.891757 56.0607021,64.7710393 56.3513804,64.4803609 L64.5972693,56.234472 L64.5972693,56.234472 L69.9541475,61.5913502 C70.4489868,62.0861895 71.2527634,62.0859109 71.7486896,61.5899847 C72.2436067,61.0950676 72.2452272,60.2906146 71.7500552,59.7954426 L65.6603829,53.7057703 C65.3695841,53.4149715 64.9720944,53.2951606 64.5930899,53.3464452 C64.2158612,53.2984693 63.8206362,53.4192898 63.5305693,53.7093567 L55.2846804,61.9552456 L47.0387915,53.7093567 C46.746941,53.4175063 46.3492929,53.2966425 45.9702974,53.3467509 C45.59235,53.2979607 45.1960697,53.4186784 44.9053914,53.7093567 L36.6595025,61.9552456 L28.4136136,53.7093567 C28.1217632,53.4175063 27.7241151,53.2966425 27.3451195,53.3467509 C26.9671721,53.2979607 26.5708919,53.4186784 26.2802135,53.7093567 L18.0343246,61.9552456 L9.78843573,53.7093567 C9.29100506,53.2119261 8.48623337,53.2112096 7.99030716,53.7071358 C7.6925557,54.0048873 7.57393179,54.4152549 7.63492867,54.8032216 Z M93.9724883,31.3241622 L93.9724883,5.07743957 C93.9724883,2.27384016 91.6945069,0 88.8887055,0 L12.7031738,0 C9.8923757,0 7.61939095,2.27076261 7.61939095,5.07743957 L7.61939095,41.7949155 L10.1591879,41.7949155 L10.1591879,5.07743957 C10.1591879,3.67593827 11.292581,2.53979698 12.7031738,2.53979698 L88.8887055,2.53979698 C90.2937101,2.53979698 91.4326914,3.67842612 91.4326914,5.07743957 L91.4326914,31.3241628 C91.4326914,32.0255084 92.0012443,32.5940613 92.7025899,32.5940613 C93.4039354,32.5940613 93.9724883,32.0255084 93.9724883,31.3241628 Z" id="Shape" fill="#002C87" fill-rule="nonzero"></path>
                        <g id="Triangle-1-+-Rectangle-270-+-Oval-106" transform="translate(78.053366, 37.751190)" fill="#D0021B">
                            <path d="M7.75882271,5.56071057 C11.5642861,-0.528030916 17.7308616,-0.533310669 21.5396248,5.56071057 L26.8073001,13.9889909 C30.6127635,20.0777324 27.8701233,25.0136327 20.693444,25.0136327 L8.60500355,25.0136327 C1.42295065,25.0136327 -1.3176158,20.0830122 2.49114748,13.9889909 L7.75882271,5.56071057 Z M12.9560258,5.95931066 L12.9560258,16.1301878 C12.9560258,16.8321966 13.5245787,17.3942417 14.2259243,17.3942417 C14.9321595,17.3942417 15.4958228,16.8283055 15.4958228,16.1301878 L15.4958228,5.95931066 C15.4958228,5.25730188 14.9272699,4.69525679 14.2259243,4.69525679 C13.5196891,4.69525679 12.9560258,5.26119299 12.9560258,5.95931066 Z M14.2259243,21.6272367 C14.9272699,21.6272367 15.4958228,21.0586838 15.4958228,20.3573382 C15.4958228,19.6559926 14.9272699,19.0874397 14.2259243,19.0874397 C13.5245787,19.0874397 12.9560258,19.6559926 12.9560258,20.3573382 C12.9560258,21.0586838 13.5245787,21.6272367 14.2259243,21.6272367 Z" id="Triangle-1"></path>
                        </g>
                    </g>
                </g>
            </g>
        </g>
    </g>
</svg>