<svg xmlns="http://www.w3.org/2000/svg" width="24.5" height="24.5" viewBox="0 0 24.5 24.5"><path fill="#a3b1cf" d="M3.75 11.93a.8.8 0 0 1 .06-.29c.04-.1.1-.19.17-.27a.84.84 0 0 1 .57-.21c.22 0 .4.07.56.21l5.06 5.06L20.62 5.98a.81.81 0 0 1 1.13 0 .81.81 0 0 1 0 1.13L10.74 18.12a.78.78 0 0 1-.57.24.76.76 0 0 1-.56-.24l-5.63-5.6a.87.87 0 0 1-.23-.59z"/><path fill="none" stroke="#a3b1cf" stroke-linecap="round" stroke-linejoin="round" stroke-miterlimit="50" stroke-width="1.5" d="M11.9 23.06A11.16 11.16 0 1 0 .75 11.9"/></svg>