<?xml version="1.0" encoding="UTF-8"?>
<svg width="360px" height="276px" viewBox="0 0 360 276" version="1.1" xmlns="http://www.w3.org/2000/svg" xmlns:xlink="http://www.w3.org/1999/xlink">
    <!-- Generator: Sketch 45.2 (43514) - http://www.bohemiancoding.com/sketch -->
    <title>Placeholder 360x276@1x</title>
    <desc>Created with Sketch.</desc>
    <defs>
        <path d="M2,0 L358,0 L358,0 C359.104569,-2.02906125e-16 360,0.8954305 360,2 L360,274 L360,274 C360,275.104569 359.104569,276 358,276 L234.759868,276 L2,276 L2,276 C0.8954305,276 1.3527075e-16,275.104569 0,274 L0,2 L0,2 C-1.3527075e-16,0.8954305 0.8954305,2.02906125e-16 2,0 Z" id="path-1"></path>
    </defs>
    <g id="Market-pages" stroke="none" stroke-width="1" fill="none" fill-rule="evenodd">
        <g id="Product-page" transform="translate(-70.000000, -100.000000)">
            <g id="content">
                <g id="Placeholder-360x276" transform="translate(70.000000, 100.000000)">
                    <mask id="mask-2" fill="white">
                        <use xlink:href="#path-1"></use>
                    </mask>
                    <use id="Mask" fill="#EFFAFF" xlink:href="#path-1"></use>
                    <circle id="Oval" fill="#09378D" opacity="0.02" cx="178.596191" cy="136.596191" r="55"></circle>
                    <path d="M197.5,121 C198.177087,121 198.763018,121.249226 199.257812,121.747685 C199.752607,122.246144 200,122.836416 200,123.518519 L200,152.481481 C200,153.163584 199.752607,153.753856 199.257812,154.252315 C198.763018,154.750774 198.177087,155 197.5,155 L162.5,155 C161.822913,155 161.236982,154.750774 160.742188,154.252315 C160.247393,153.753856 160,153.163584 160,152.481481 L160,123.518519 C160,122.836416 160.247393,122.246144 160.742188,121.747685 C161.236982,121.249226 161.822913,121 162.5,121 L197.5,121 Z M197.5,152.481481 L197.5,150.159722 L197.441406,150.100694 C197.428385,150.087577 197.408854,150.081019 197.382812,150.081019 L189.179688,141.541667 L184.609375,145.712963 C184.322915,145.922841 184.016929,146.034336 183.691406,146.047454 C183.365884,146.060571 183.098959,145.935958 182.890625,145.673611 L172.539062,135.284722 L162.5,145.083333 L162.5,152.481481 L197.5,152.481481 Z M197.5,146.578704 L197.5,123.518519 L162.5,123.518519 L162.5,141.541667 L171.640625,132.608796 C171.770834,132.477623 171.914062,132.385803 172.070312,132.333333 C172.226563,132.280864 172.395832,132.25463 172.578125,132.25463 C172.734376,132.25463 172.890624,132.293981 173.046875,132.372685 C173.203126,132.451389 173.346354,132.569444 173.476562,132.726852 L183.789062,143.037037 L188.515625,138.905093 C188.776043,138.695215 189.055988,138.603395 189.355469,138.62963 C189.654949,138.655864 189.921874,138.773919 190.15625,138.983796 L197.5,146.578704 Z M188.75,133.592593 C188.072913,133.592593 187.486982,133.349925 186.992188,132.864583 C186.497393,132.379241 186.25,131.782411 186.25,131.074074 C186.25,130.391972 186.497393,129.8017 186.992188,129.303241 C187.486982,128.804781 188.072913,128.555556 188.75,128.555556 C189.427087,128.555556 190.013018,128.804781 190.507812,129.303241 C191.002607,129.8017 191.25,130.391972 191.25,131.074074 C191.25,131.782411 191.002607,132.379241 190.507812,132.864583 C190.013018,133.349925 189.427087,133.592593 188.75,133.592593 Z" id="Picture---simple-line-icons" fill-opacity="0.5" fill="#42B5FB"></path>
                    <path d="M156.935291,159.078031 L128.292893,187.720429 C127.902369,188.110954 127.902369,188.744119 128.292893,189.134643 C128.683418,189.525167 129.316582,189.525167 129.707107,189.134643 L158.420791,160.420958 C157.911331,159.989103 157.415904,159.541201 156.935291,159.078031 Z M199.95299,159.367203 L229.720429,189.134643 C230.110954,189.525167 230.744119,189.525167 231.134643,189.134643 C231.525167,188.744119 231.525167,188.110954 231.134643,187.720429 L201.367203,157.95299 C200.910938,158.439274 200.439274,158.910938 199.95299,159.367203 Z M202.420958,116.420791 L231.134643,87.7071068 C231.525167,87.3165825 231.525167,86.6834175 231.134643,86.2928932 C230.744119,85.9023689 230.110954,85.9023689 229.720429,86.2928932 L201.078031,114.935291 C201.541201,115.415904 201.989103,115.911331 202.420958,116.420791 Z M157.239393,113.82518 L129.707107,86.2928932 C129.316582,85.9023689 128.683418,85.9023689 128.292893,86.2928932 C127.902369,86.6834175 127.902369,87.3165825 128.292893,87.7071068 L155.82518,115.239393 C156.281445,114.753108 156.753108,114.281445 157.239393,113.82518 Z" id="Combined-Shape" fill="#CAEBFE"></path>
                </g>
            </g>
        </g>
    </g>
</svg>