<?xml version="1.0" encoding="UTF-8"?>
<svg width="24px" height="24px" viewBox="0 0 24 24" version="1.1" xmlns="http://www.w3.org/2000/svg" xmlns:xlink="http://www.w3.org/1999/xlink">
    <!-- Generator: Sketch 46 (44423) - http://www.bohemiancoding.com/sketch -->
    <title>Icon</title>
    <desc>Created with Sketch.</desc>
    <defs></defs>
    <g id="Page-1" stroke="none" stroke-width="1" fill="none" fill-rule="evenodd">
        <g id="processing-bar-copy" transform="translate(-570.000000, -502.000000)" fill="#A3B1CF">
            <g id="popover" transform="translate(547.000000, 292.000000)">
                <g id="container" transform="translate(1.000000, 176.000000)">
                    <g id="Icon" transform="translate(16.000000, 26.000000)">
                        <g id="icon">
                            <path d="M19.8129412,19.6635742 L29.604037,9.87247845 C29.9949725,9.48154297 29.9949725,8.84771131 29.604037,8.45677583 C29.2131015,8.06584035 28.5792698,8.06584035 28.1883344,8.45677583 L18.3972386,18.2478716 L8.60614281,8.45677583 C8.21520733,8.06584035 7.58137568,8.06584035 7.1904402,8.45677583 C6.79950471,8.84771131 6.79950471,9.48154297 7.1904402,9.87247845 L16.981536,19.6635742 L7.1904402,29.45467 C6.79950471,29.8456055 6.79950471,30.4794371 7.1904402,30.8703726 C7.58137568,31.2613081 8.21520733,31.2613081 8.60614281,30.8703726 L18.3972386,21.0792768 L28.1883344,30.8703726 C28.5792698,31.2613081 29.2131015,31.2613081 29.604037,30.8703726 C29.9949725,30.4794371 29.9949725,29.8456055 29.604037,29.45467 L19.8129412,19.6635742 Z" id="Combined-Shape"></path>
                        </g>
                    </g>
                </g>
            </g>
        </g>
    </g>
</svg>