<?xml version="1.0" encoding="UTF-8"?>
<svg width="30px" height="34px" viewBox="0 0 30 34" version="1.1" xmlns="http://www.w3.org/2000/svg" xmlns:xlink="http://www.w3.org/1999/xlink">
    <!-- Generator: Sketch 46 (44423) - http://www.bohemiancoding.com/sketch -->
    <title>Icon</title>
    <desc>Created with Sketch.</desc>
    <defs></defs>
    <g id="Page-1" stroke="none" stroke-width="1" fill="none" fill-rule="evenodd">
        <g id="processing-bar-copy" transform="translate(-568.000000, -408.000000)" fill="#A3B1CF">
            <g id="popover" transform="translate(547.000000, 292.000000)">
                <g id="container" transform="translate(1.000000, 88.000000)">
                    <g id="Icon" transform="translate(20.000000, 28.000000)">
                        <path d="M14.5011432,29.8469849 L14.7006859,30.1462989 C14.7672005,30.234985 14.8060001,30.3292126 14.8170858,30.4289844 C14.8281716,30.5287563 14.8226288,30.6229839 14.8004573,30.71167 C14.7782858,30.800356 14.7339434,30.883498 14.6674288,30.9610983 C14.6009142,31.0386987 14.5233151,31.110755 14.434629,31.1772696 L14.1020578,31.3435552 L9.14674716,33.9043533 C8.96937498,33.9930394 8.79200545,34.0096678 8.61463327,33.954239 C8.43726108,33.8988102 8.29314835,33.7824114 8.18229073,33.6050393 L8.08251938,33.3389823 C7.97166176,33.1616101 7.94394777,32.973155 7.99937658,32.7736113 C8.05480539,32.5740676 8.17120414,32.4299548 8.34857632,32.3412688 L11.0424029,30.9444698 L10.9758887,30.9444698 C10.9537172,30.9444698 10.931546,30.9333842 10.9093744,30.9112127 C9.9116559,30.6673259 8.9582947,30.3125869 8.04926226,29.8469849 C7.14022981,29.3813829 6.28663897,28.8326459 5.48846414,28.2007575 C4.69028931,27.5688691 3.96972562,26.859391 3.32675145,26.0723019 C2.68377728,25.2852129 2.11841192,24.4260792 1.63063841,23.4948753 C1.18720795,22.6301859 0.832468897,21.7377954 0.56641062,20.8176772 C0.300352342,19.897559 0.128525616,18.966369 0.0509252848,18.0240793 C-0.0266750461,17.0817896 -0.0155894508,16.1339712 0.0841824032,15.1805957 C0.183954257,14.2272202 0.38903777,13.2849446 0.699439093,12.3537406 C0.987668894,11.4225366 1.37012193,10.5412318 1.84680968,9.70979969 C2.32349742,8.87836757 2.87223439,8.09683311 3.49303704,7.36517285 C4.11383969,6.63351258 4.80114659,5.96837687 5.55497838,5.36974574 C6.30881016,4.77111462 7.12914421,4.25009164 8.01600514,3.80666118 C8.25989189,3.67363204 8.51486058,3.65146085 8.78091886,3.74014694 C9.04697714,3.82883303 9.24651785,3.99511696 9.37954699,4.23900372 C9.51257613,4.50506199 9.53474732,4.77111628 9.44606123,5.03717456 C9.35737514,5.30323284 9.19109121,5.50277355 8.94720445,5.63580269 C7.4617124,6.411806 6.17024056,7.43168076 5.07275016,8.69545758 C3.97525977,9.9592344 3.17155411,11.3892762 2.66160908,12.9856259 C2.15166405,14.5819755 1.96875172,16.2060152 2.11286662,17.8577937 C2.25698153,19.5095722 2.70594813,21.0781839 3.45977992,22.5636759 C3.88103886,23.3396793 4.36880505,24.0657857 4.92309313,24.7420172 C5.47738121,25.4182487 6.09263174,26.0279564 6.7688632,26.5711587 C7.44509465,27.114361 8.17674394,27.5854988 8.96383301,27.9845862 C9.75092208,28.3836737 10.5767989,28.6940703 11.4414883,28.9157856 C11.5301744,28.9379571 11.6133164,28.9601283 11.6909167,28.9822998 C11.7685171,29.0044713 11.851659,29.0266425 11.9403451,29.048814 L9.97817512,25.9891591 C9.86731751,25.811787 9.81743233,25.6122462 9.82851809,25.390531 C9.83960385,25.1688158 9.93383141,25.0136174 10.1112036,24.9249314 L10.3772605,24.7586458 C10.5768043,24.6477881 10.776345,24.6200742 10.9758887,24.675503 C11.1754324,24.7309318 11.3306307,24.8473305 11.4414883,25.0247027 L14.5011432,29.8137278 L14.5011432,29.8469849 Z M28.3693616,10.6243704 C28.8127921,11.4890598 29.1675311,12.3814503 29.4335894,13.3015685 C29.6996477,14.2216867 29.8714744,15.1528767 29.9490747,16.0951664 C30.026675,17.0374562 30.0155895,17.9852746 29.9158176,18.93865 C29.8160457,19.8920255 29.6109622,20.8343011 29.3005609,21.7655051 C29.0123311,22.6967091 28.6354209,23.5835567 28.1698189,24.4260746 C27.7042169,25.2685925 27.1665655,26.0501269 26.5568486,26.7707014 C25.9471318,27.4912759 25.2709104,28.1508688 24.5281644,28.7495 C23.7854184,29.3481311 22.9817127,29.8691541 22.1170233,30.3125845 C22.0283372,30.3569276 21.9451953,30.3901844 21.8675949,30.4123559 C21.7899946,30.4345274 21.7068527,30.445613 21.6181666,30.445613 C21.4407944,30.445613 21.2689676,30.3957278 21.1026812,30.295956 C20.9363948,30.1961841 20.8089105,30.0576142 20.7202244,29.880242 C20.5871952,29.6141837 20.565024,29.3481294 20.6537101,29.0820712 C20.7423962,28.8160129 20.9086801,28.6164722 21.1525669,28.483443 C22.638059,27.7074397 23.9129024,26.6875649 24.9771355,25.4237881 C26.0413686,24.1600113 26.8284459,22.7299695 27.3383909,21.1336199 C27.848336,19.5372702 28.0367911,17.9187733 27.9037619,16.2780806 C27.7707328,14.6373879 27.3162234,13.0632333 26.5402201,11.5555698 C25.7198737,9.98139162 24.6334854,8.64003459 23.2810225,7.53145844 C21.9285596,6.42288228 20.3876618,5.64689061 18.658283,5.20346015 C18.4587393,5.13694558 18.248113,5.0870604 18.0263978,5.05380312 C17.8046825,5.02054583 17.5940562,4.98174625 17.3945125,4.9374032 L19.3566825,7.99705809 C19.4675401,8.17443028 19.5118825,8.37397099 19.489711,8.59568623 C19.4675395,8.81740146 19.3677691,8.97259979 19.1903969,9.06128588 L18.92434,9.22757147 C18.7469678,9.33842909 18.5585127,9.36614308 18.358969,9.31071427 C18.1594252,9.25528546 18.0042269,9.13888671 17.8933693,8.96151453 L14.8337144,4.17248948 L14.8004573,4.17248948 L14.6341717,3.8399183 C14.5676571,3.7512322 14.5288575,3.65700464 14.5177718,3.55723279 C14.506686,3.45746094 14.5122288,3.36323338 14.5344003,3.27454728 C14.5565719,3.18586119 14.6009142,3.10271923 14.6674288,3.0251189 C14.7339434,2.94751856 14.8115426,2.8754622 14.9002286,2.80894763 L15.2327998,2.64266203 L20.1881105,0.0818639182 C20.3654827,-0.00682217423 20.5594806,-0.0234505671 20.77011,0.0319782406 C20.9807395,0.0874070484 21.1414806,0.203805799 21.2523383,0.381177984 L21.3521096,0.647234931 C21.4629672,0.824607116 21.4740528,1.01306224 21.3853667,1.21260594 C21.2966806,1.41214965 21.1636535,1.56734799 20.9862813,1.6782056 L18.3257118,3.00849034 C18.4809125,3.03066186 18.630568,3.05837585 18.7746829,3.09163313 C18.9187978,3.12489042 19.0573678,3.16369 19.1903969,3.20803305 C20.1881155,3.47409132 21.1414767,3.83437317 22.0505091,4.28888939 C22.9595415,4.74340562 23.8020468,5.28659979 24.5780501,5.9184882 C25.3540534,6.5503766 26.0635315,7.2598547 26.7065057,8.04694377 C27.3494798,8.83403284 27.9037596,9.69316648 28.3693616,10.6243704 Z" id="Refresh---simple-line-icons"></path>
                    </g>
                </g>
            </g>
        </g>
    </g>
</svg>