<?xml version="1.0" encoding="UTF-8"?>
<svg width="31px" height="31px" viewBox="0 0 31 31" version="1.1" xmlns="http://www.w3.org/2000/svg" xmlns:xlink="http://www.w3.org/1999/xlink">
    <!-- Generator: Sketch 46 (44423) - http://www.bohemiancoding.com/sketch -->
    <title>Icon</title>
    <desc>Created with Sketch.</desc>
    <defs></defs>
    <g id="Page-1" stroke="none" stroke-width="1" fill="none" fill-rule="evenodd">
        <g id="processing-bar-copy" transform="translate(-567.000000, -321.000000)">
            <g id="popover" transform="translate(547.000000, 292.000000)">
                <g id="container" transform="translate(1.000000, 0.000000)">
                    <g id="Icon" transform="translate(15.000000, 25.000000)">
                        <path d="M9,18.4778317 C9,18.3490701 9.02682492,18.2149455 9.08047556,18.0754539 C9.1341262,17.9359622 9.21460095,17.8125676 9.32190223,17.7052663 C9.53650479,17.512124 9.79402399,17.4155543 10.0944676,17.4155543 C10.3949112,17.4155543 10.6524304,17.512124 10.8670329,17.7052663 L17.808318,24.6465514 L32.1329671,10.3219022 C32.3475696,10.1072997 32.6050888,10 32.9055324,10 C33.205976,10 33.4634952,10.1072997 33.6780978,10.3219022 C33.8927003,10.5365048 34,10.794024 34,11.0944676 C34,11.3949112 33.8927003,11.6524304 33.6780978,11.8670329 L18.5808833,26.9642474 C18.3662807,27.17885 18.1087615,27.2861496 17.808318,27.2861496 C17.5078744,27.2861496 17.2503552,27.17885 17.0357526,26.9642474 L9.32190223,19.2825872 C9.21460095,19.175286 9.1341262,19.0518913 9.08047556,18.9123997 C9.02682492,18.772908 9,18.6280535 9,18.4778317 Z" id="Arrow-down---simple-line-icons" fill="#A3B1CF"></path>
                        <path d="M19.5,34 C27.5081289,34 34,27.5081289 34,19.5 C34,11.4918711 27.5081289,5 19.5,5 C11.4918711,5 5,11.4918711 5,19.5" id="Oval-2" stroke="#A3B1CF" stroke-width="2" stroke-linecap="round" stroke-linejoin="round" transform="translate(19.500000, 19.500000) rotate(200.000000) translate(-19.500000, -19.500000) "></path>
                    </g>
                </g>
            </g>
        </g>
    </g>
</svg>